<?xml version="1.0" encoding="utf-8"?>
<!-- Svg Vector Icons : http://www.onlinewebfonts.com/icon -->
<!DOCTYPE svg PUBLIC "-//W3C//DTD SVG 1.1//EN" "http://www.w3.org/Graphics/SVG/1.1/DTD/svg11.dtd">
<svg version="1.1" xmlns="http://www.w3.org/2000/svg" xmlns:xlink="http://www.w3.org/1999/xlink" x="0px" y="0px" viewBox="0 0 256 256" enable-background="new 0 0 256 256" xml:space="preserve">
<metadata> Svg Vector Icons : http://www.onlinewebfonts.com/icon </metadata>
<g><g><path fill="#000000" d="M244.7,14.2c-0.4-0.6-0.8-1.2-1.3-1.7c-0.6-0.6-1.2-1-1.8-1.4c-1.2-0.8-2.6-1.2-4-1.2h-73c-4.6,0-8.4,4.4-8.4,9.8c0,5.4,3.8,9.8,8.4,9.8h49.4l-90.1,90.1c-3.4,3.4-3.4,9,0,12.5c3.4,3.4,9,3.4,12.5,0L226.5,42v49.5c0,4.6,4.4,8.4,9.7,8.4c5.4,0,9.7-3.8,9.7-8.4V18.4C246,16.9,245.5,15.5,244.7,14.2z M236.3,128c-5.4,0-9.7,3.8-9.7,8.4v90.1H29.7v-197h89.8c4.6,0,8.4-4.4,8.4-9.8c0-5.4-3.8-9.8-8.4-9.8H18.4c-2.3,0-4.4,1.1-5.9,2.8C11,14.3,10,16.3,10,18.4v219.1c0,2.1,0.9,4,2.4,5.5c1.5,1.8,3.7,2.9,6,2.9h219.1c2.2,0,4.3-1,5.8-2.7c1.6-1.5,2.6-3.5,2.6-5.8V136.4C246,131.8,241.6,128,236.3,128z"/></g></g>
</svg>